<mxfile host="app.diagrams.net" modified="2020-04-27T04:55:33.710Z" agent="5.0 (Windows NT 10.0; Win64; x64) AppleWebKit/537.36 (KHTML, like Gecko) Chrome/81.0.4044.113 Safari/537.36" etag="_FH7--vg16RU1tQ8UqUl" version="13.0.1" type="github">
  <diagram id="2NK9Bv698ZCDxw2LtlY-" name="Page-1">
    <mxGraphModel dx="1185" dy="1738" grid="1" gridSize="10" guides="1" tooltips="1" connect="1" arrows="1" fold="1" page="1" pageScale="1" pageWidth="850" pageHeight="1100" math="0" shadow="0">
      <root>
        <mxCell id="0" />
        <mxCell id="1" parent="0" />
        <mxCell id="4_3aIprzykxPTUGAOZH8-1" value="" style="rounded=0;whiteSpace=wrap;html=1;" vertex="1" parent="1">
          <mxGeometry x="195" y="-1010" width="420" height="810" as="geometry" />
        </mxCell>
        <mxCell id="4_3aIprzykxPTUGAOZH8-3" value="view course" style="ellipse;whiteSpace=wrap;html=1;" vertex="1" parent="1">
          <mxGeometry x="240" y="-850" width="120" height="80" as="geometry" />
        </mxCell>
        <mxCell id="4_3aIprzykxPTUGAOZH8-4" value="view grades" style="ellipse;whiteSpace=wrap;html=1;" vertex="1" parent="1">
          <mxGeometry x="240" y="-760" width="120" height="80" as="geometry" />
        </mxCell>
        <mxCell id="4_3aIprzykxPTUGAOZH8-5" value="view profile" style="ellipse;whiteSpace=wrap;html=1;" vertex="1" parent="1">
          <mxGeometry x="240" y="-940" width="120" height="80" as="geometry" />
        </mxCell>
        <mxCell id="4_3aIprzykxPTUGAOZH8-6" value="" style="endArrow=none;html=1;" edge="1" parent="1" source="4_3aIprzykxPTUGAOZH8-12" target="4_3aIprzykxPTUGAOZH8-5">
          <mxGeometry width="50" height="50" relative="1" as="geometry">
            <mxPoint x="250" y="-870" as="sourcePoint" />
            <mxPoint x="320" y="-910" as="targetPoint" />
            <Array as="points">
              <mxPoint x="150" y="-740" />
              <mxPoint x="243" y="-880" />
            </Array>
          </mxGeometry>
        </mxCell>
        <mxCell id="4_3aIprzykxPTUGAOZH8-7" value="maintain grades" style="ellipse;whiteSpace=wrap;html=1;" vertex="1" parent="1">
          <mxGeometry x="230" y="-300" width="120" height="80" as="geometry" />
        </mxCell>
        <mxCell id="4_3aIprzykxPTUGAOZH8-8" value="maintain profile" style="ellipse;whiteSpace=wrap;html=1;" vertex="1" parent="1">
          <mxGeometry x="230" y="-480" width="120" height="80" as="geometry" />
        </mxCell>
        <mxCell id="4_3aIprzykxPTUGAOZH8-9" value="Administrator&lt;br&gt;(Professor)" style="shape=umlActor;verticalLabelPosition=bottom;labelBackgroundColor=#ffffff;verticalAlign=top;html=1;outlineConnect=0;" vertex="1" parent="1">
          <mxGeometry x="700" y="-630" width="30" height="60" as="geometry" />
        </mxCell>
        <mxCell id="4_3aIprzykxPTUGAOZH8-11" value="maintain course" style="ellipse;whiteSpace=wrap;html=1;" vertex="1" parent="1">
          <mxGeometry x="230" y="-390" width="120" height="80" as="geometry" />
        </mxCell>
        <mxCell id="4_3aIprzykxPTUGAOZH8-12" value="User&lt;br&gt;(Student)" style="shape=umlActor;verticalLabelPosition=bottom;labelBackgroundColor=#ffffff;verticalAlign=top;html=1;outlineConnect=0;" vertex="1" parent="1">
          <mxGeometry x="90" y="-650" width="30" height="60" as="geometry" />
        </mxCell>
        <mxCell id="4_3aIprzykxPTUGAOZH8-13" value="" style="endArrow=none;html=1;entryX=0.007;entryY=0.588;entryDx=0;entryDy=0;entryPerimeter=0;exitX=0.75;exitY=0.1;exitDx=0;exitDy=0;exitPerimeter=0;" edge="1" parent="1" source="4_3aIprzykxPTUGAOZH8-12" target="4_3aIprzykxPTUGAOZH8-4">
          <mxGeometry width="50" height="50" relative="1" as="geometry">
            <mxPoint x="220" y="-765" as="sourcePoint" />
            <mxPoint x="270" y="-815" as="targetPoint" />
          </mxGeometry>
        </mxCell>
        <mxCell id="4_3aIprzykxPTUGAOZH8-14" value="" style="endArrow=none;html=1;exitX=1;exitY=0.5;exitDx=0;exitDy=0;entryX=0.75;entryY=0.1;entryDx=0;entryDy=0;entryPerimeter=0;" edge="1" parent="1" source="4_3aIprzykxPTUGAOZH8-5" target="4_3aIprzykxPTUGAOZH8-9">
          <mxGeometry width="50" height="50" relative="1" as="geometry">
            <mxPoint x="480" y="-860" as="sourcePoint" />
            <mxPoint x="510" y="-820" as="targetPoint" />
            <Array as="points" />
          </mxGeometry>
        </mxCell>
        <mxCell id="4_3aIprzykxPTUGAOZH8-15" value="" style="endArrow=none;html=1;" edge="1" parent="1" source="4_3aIprzykxPTUGAOZH8-4" target="4_3aIprzykxPTUGAOZH8-9">
          <mxGeometry width="50" height="50" relative="1" as="geometry">
            <mxPoint x="480" y="-680" as="sourcePoint" />
            <mxPoint x="530" y="-730" as="targetPoint" />
            <Array as="points">
              <mxPoint x="460" y="-740" />
            </Array>
          </mxGeometry>
        </mxCell>
        <mxCell id="4_3aIprzykxPTUGAOZH8-18" value="" style="endArrow=none;html=1;entryX=0.021;entryY=0.608;entryDx=0;entryDy=0;entryPerimeter=0;exitX=0.75;exitY=0.1;exitDx=0;exitDy=0;exitPerimeter=0;" edge="1" parent="1" source="4_3aIprzykxPTUGAOZH8-12" target="4_3aIprzykxPTUGAOZH8-3">
          <mxGeometry width="50" height="50" relative="1" as="geometry">
            <mxPoint x="140" y="-590" as="sourcePoint" />
            <mxPoint x="190" y="-640" as="targetPoint" />
            <Array as="points">
              <mxPoint x="170" y="-720" />
            </Array>
          </mxGeometry>
        </mxCell>
        <mxCell id="4_3aIprzykxPTUGAOZH8-20" value="" style="endArrow=none;html=1;exitX=1;exitY=0.5;exitDx=0;exitDy=0;" edge="1" parent="1" source="4_3aIprzykxPTUGAOZH8-8" target="4_3aIprzykxPTUGAOZH8-9">
          <mxGeometry width="50" height="50" relative="1" as="geometry">
            <mxPoint x="580" y="-490" as="sourcePoint" />
            <mxPoint x="630" y="-540" as="targetPoint" />
          </mxGeometry>
        </mxCell>
        <mxCell id="4_3aIprzykxPTUGAOZH8-21" value="" style="endArrow=none;html=1;entryX=0.467;entryY=0.75;entryDx=0;entryDy=0;entryPerimeter=0;" edge="1" parent="1" source="4_3aIprzykxPTUGAOZH8-11" target="4_3aIprzykxPTUGAOZH8-9">
          <mxGeometry width="50" height="50" relative="1" as="geometry">
            <mxPoint x="580" y="-480" as="sourcePoint" />
            <mxPoint x="680" y="-540" as="targetPoint" />
            <Array as="points" />
          </mxGeometry>
        </mxCell>
        <mxCell id="4_3aIprzykxPTUGAOZH8-22" value="" style="endArrow=none;html=1;entryX=0;entryY=1;entryDx=0;entryDy=0;entryPerimeter=0;" edge="1" parent="1" source="4_3aIprzykxPTUGAOZH8-7" target="4_3aIprzykxPTUGAOZH8-9">
          <mxGeometry width="50" height="50" relative="1" as="geometry">
            <mxPoint x="590" y="-480" as="sourcePoint" />
            <mxPoint x="640" y="-530" as="targetPoint" />
          </mxGeometry>
        </mxCell>
        <mxCell id="4_3aIprzykxPTUGAOZH8-24" value="Learning Management System" style="text;html=1;align=center;verticalAlign=middle;resizable=0;points=[];autosize=1;" vertex="1" parent="1">
          <mxGeometry x="326" y="-990" width="180" height="20" as="geometry" />
        </mxCell>
        <mxCell id="4_3aIprzykxPTUGAOZH8-32" value="" style="endArrow=none;html=1;exitX=1;exitY=0.5;exitDx=0;exitDy=0;" edge="1" parent="1" source="4_3aIprzykxPTUGAOZH8-3" target="4_3aIprzykxPTUGAOZH8-9">
          <mxGeometry width="50" height="50" relative="1" as="geometry">
            <mxPoint x="497.9369455112385" y="-639.6010610620856" as="sourcePoint" />
            <mxPoint x="590" y="-630" as="targetPoint" />
            <Array as="points">
              <mxPoint x="510" y="-750" />
            </Array>
          </mxGeometry>
        </mxCell>
      </root>
    </mxGraphModel>
  </diagram>
</mxfile>
